<?xml version="1.0" encoding="utf-8"?>
<!-- Generator: Adobe Illustrator 20.1.0, SVG Export Plug-In . SVG Version: 6.00 Build 0)  -->
<svg version="1.1" id="Layer_1" xmlns="http://www.w3.org/2000/svg" xmlns:xlink="http://www.w3.org/1999/xlink" x="0px" y="0px"
	 viewBox="0 0 1792 1792" style="enable-background:new 0 0 1792 1792;" xml:space="preserve">
<style type="text/css">
	.st0{fill:#0E4C8B;}
</style>
<g>
	<path class="st0" d="M1541.6,419.2c17.2,17.2,32,40.6,44.3,70.2c12.3,29.6,18.5,56.7,18.5,81.3v1064.2c0,24.6-8.6,45.6-25.9,62.8
		s-38.2,25.9-62.8,25.9H274.1c-24.6,0-45.6-8.6-62.8-25.9s-25.9-38.2-25.9-62.8v-1478c0-24.6,8.6-45.6,25.9-62.8
		s38.2-25.9,62.8-25.9h827.7c24.6,0,51.7,6.2,81.3,18.5s53,27.1,70.2,44.3L1541.6,419.2z M1131.4,193.8v347.3h347.3
		c-6.2-17.9-12.9-30.5-20.3-37.9l-289.1-289.1C1161.9,206.7,1149.3,200,1131.4,193.8z M1486.1,1605.3V659.4h-384.3
		c-24.6,0-45.6-8.6-62.8-25.9c-17.2-17.2-25.9-38.2-25.9-62.8V186.4H303.7v1418.9H1486.1z M758.2,853.4
		c12.3,4.9,18.5,14.2,18.5,27.7v502.5c0,13.5-6.2,22.8-18.5,27.7c-4.9,1.2-8.6,1.8-11.1,1.8c-7.4,0-14.5-2.8-21.2-8.3l-153.3-154.3
		h-121c-8.6,0-15.7-2.8-21.2-8.3c-5.5-5.5-8.3-12.6-8.3-21.2v-177.4c0-8.6,2.8-15.7,8.3-21.2c5.5-5.5,12.6-8.3,21.2-8.3h121
		l153.3-154.3C735.7,850.6,746.5,848.4,758.2,853.4z M1143.4,1489.9c19.1,0,34.5-7.4,46.2-22.2c79.4-97.9,119.2-209.7,119.2-335.3
		c0-125.6-39.7-237.4-119.2-335.3c-9.9-12.9-23.1-20.3-39.7-22.2c-16.6-1.8-31.1,2.5-43.4,12.9c-12.9,10.5-20.2,23.9-21.7,40.2
		c-1.5,16.3,2.9,30.9,13.4,43.9c61.6,75.7,92.4,162.6,92.4,260.5c0,97.9-30.8,184.8-92.4,260.5c-10.5,12.9-14.9,27.6-13.4,43.9
		c1.5,16.3,8.8,29.4,21.7,39.3C1117.5,1485.2,1129.9,1489.9,1143.4,1489.9z M948.5,1353.1c16.6,0,31.1-6.2,43.4-18.5
		c53.6-57.3,80.4-124.7,80.4-202.3c0-77.6-26.8-145-80.4-202.3c-11.1-11.7-24.9-17.9-41.6-18.5c-16.6-0.6-30.8,4.6-42.5,15.7
		c-11.7,11.1-17.9,24.8-18.5,41.1c-0.6,16.3,4.9,30.6,16.6,43c32,35.1,48,75.4,48,121c0,45.6-16,85.9-48,121
		c-11.7,12.3-17.2,26.6-16.6,43c0.6,16.3,6.8,30,18.5,41.1C920.2,1347.9,933.7,1353.1,948.5,1353.1z"/>
</g>
</svg>
