<?xml version="1.0" encoding="utf-8"?>
<!-- Generator: Adobe Illustrator 20.1.0, SVG Export Plug-In . SVG Version: 6.00 Build 0)  -->
<svg version="1.1" id="Layer_1" xmlns="http://www.w3.org/2000/svg" xmlns:xlink="http://www.w3.org/1999/xlink" x="0px" y="0px"
	 viewBox="0 0 1792 1792" style="enable-background:new 0 0 1792 1792;" xml:space="preserve">
<style type="text/css">
	.st0{fill:#0E4C8B;}
</style>
<g>
	<path class="st0" d="M1503,1250.4c0-25.9-9.1-48-27.2-66.1l-202.3-202.3c-18.2-18.2-40.2-27.2-66.1-27.2c-27.2,0-50.6,10.4-70,31.1
		c1.9,1.9,8.1,7.9,18.5,18c10.4,10.1,17.3,17,20.9,20.9c3.6,3.9,8.4,10.1,14.6,18.5s10.4,16.7,12.6,24.8c2.3,8.1,3.4,17,3.4,26.8
		c0,25.9-9.1,48-27.2,66.1c-18.2,18.2-40.2,27.2-66.1,27.2c-9.7,0-18.6-1.1-26.8-3.4c-8.1-2.3-16.4-6.5-24.8-12.6
		c-8.4-6.2-14.6-11-18.5-14.6c-3.9-3.6-10.9-10.5-20.9-20.9c-10.1-10.4-16.1-16.5-18-18.5c-21.4,20.1-32.1,43.8-32.1,71
		c0,25.9,9.1,48,27.2,66.1l200.4,201.4c17.5,17.5,39.6,26.3,66.1,26.3c25.9,0,48-8.4,66.1-25.3l143-142
		C1493.9,1297.4,1503,1275.7,1503,1250.4z M819.2,564.6c0-25.9-9.1-48-27.2-66.1L591.5,297.1c-18.2-18.2-40.2-27.2-66.1-27.2
		c-25.3,0-47.3,8.8-66.1,26.3l-143,142C298.1,456.3,289,478,289,503.3c0,25.9,9.1,48,27.2,66.1l202.3,202.3
		c17.5,17.5,39.6,26.3,66.1,26.3c27.2,0,50.6-10.1,70-30.2c-1.9-1.9-8.1-7.9-18.5-18c-10.4-10.1-17.3-17-20.9-20.9
		c-3.6-3.9-8.4-10.1-14.6-18.5c-6.2-8.4-10.4-16.7-12.6-24.8c-2.3-8.1-3.4-17-3.4-26.8c0-25.9,9.1-48,27.2-66.1
		c18.2-18.2,40.2-27.2,66.1-27.2c9.7,0,18.6,1.1,26.8,3.4c8.1,2.3,16.4,6.5,24.8,12.6c8.4,6.2,14.6,11,18.5,14.6
		c3.9,3.6,10.9,10.5,20.9,20.9c10.1,10.4,16.1,16.5,18,18.5C808.5,615.5,819.2,591.9,819.2,564.6z M1689.8,1250.4
		c0,77.8-27.6,143.6-82.7,197.5l-143,142c-53.8,53.8-119.6,80.7-197.5,80.7c-78.5,0-144.6-27.6-198.4-82.7l-200.4-201.4
		c-53.8-53.8-80.7-119.6-80.7-197.5c0-79.8,28.5-147.5,85.6-203.3l-85.6-85.6c-55.8,57.1-123.2,85.6-202.3,85.6
		c-77.8,0-144-27.2-198.4-81.7L183.9,701.8c-54.5-54.5-81.7-120.6-81.7-198.4s27.6-143.6,82.7-197.5l143-142
		c53.8-53.8,119.6-80.7,197.5-80.7c78.5,0,144.6,27.6,198.4,82.7l200.4,201.4c53.8,53.8,80.7,119.6,80.7,197.5
		c0,79.8-28.5,147.5-85.6,203.3l85.6,85.6c55.8-57.1,123.2-85.6,202.3-85.6c77.8,0,144,27.2,198.4,81.7l202.3,202.3
		C1662.5,1106.5,1689.8,1172.6,1689.8,1250.4z"/>
</g>
</svg>
