<?xml version="1.0" encoding="utf-8"?>
<!-- Generator: Adobe Illustrator 20.1.0, SVG Export Plug-In . SVG Version: 6.00 Build 0)  -->
<svg version="1.1" id="Layer_1" xmlns="http://www.w3.org/2000/svg" xmlns:xlink="http://www.w3.org/1999/xlink" x="0px" y="0px"
	 viewBox="0 0 1792 1792" style="enable-background:new 0 0 1792 1792;" xml:space="preserve">
<style type="text/css">
	.st0{fill:#0E4C8B;}
</style>
<g>
	<path class="st0" d="M1676,438.8v962.4c0,24.8-11.5,42.2-34.5,52.2c-7.7,2.9-15,4.4-22.1,4.4c-15.9,0-29.2-5.6-39.8-16.8
		l-356.5-356.5v146.8c0,70.2-24.9,130.2-74.7,180s-109.8,74.7-180,74.7H345.6c-70.2,0-130.2-24.9-180-74.7s-74.7-109.8-74.7-180
		V608.6c0-70.2,24.9-130.2,74.7-180s109.8-74.7,180-74.7h622.7c70.2,0,130.2,24.9,180,74.7s74.7,109.8,74.7,180v146L1579.6,399
		c10.6-11.2,23.9-16.8,39.8-16.8c7.1,0,14.4,1.5,22.1,4.4C1664.5,396.6,1676,414,1676,438.8z"/>
</g>
</svg>
