<?xml version="1.0" encoding="utf-8"?>
<!-- Generator: Adobe Illustrator 20.1.0, SVG Export Plug-In . SVG Version: 6.00 Build 0)  -->
<svg version="1.1" id="Layer_1" xmlns="http://www.w3.org/2000/svg" xmlns:xlink="http://www.w3.org/1999/xlink" x="0px" y="0px"
	 viewBox="0 0 1792 1792" style="enable-background:new 0 0 1792 1792;" xml:space="preserve">
<style type="text/css">
	.st0{fill:#0E4C8B;}
</style>
<g>
	<path class="st0" d="M256.3,1671.2c-21.2-6.8,201.6-1096.9,214.1-1109.4c12.5-12.5,319.7-71.6,557.9-232.8
		c206.6-139.8,218.8-261,236.3-261s276.9,814.7,272.5,829c-4.4,14.3-135.5,270.5-509.2,500.2C763.7,1559.5,277.6,1678,256.3,1671.2z
		"/>
	<path class="st0" d="M308,1671.2c0,0,255.5-31.2,568.3-28.8c432.2,3.3,607.4,63.3,616.8,50.6c9.4-12.7-21.5-662.5-21.5-662.5
		s-23.2,571.7-35,588.5c-11.8,16.8-324.6-7.8-539.9-3.9C681.4,1619,308,1671.2,308,1671.2z"/>
</g>
</svg>
