<?xml version="1.0" encoding="utf-8"?>
<!-- Generator: Adobe Illustrator 20.1.0, SVG Export Plug-In . SVG Version: 6.00 Build 0)  -->
<svg version="1.1" id="Layer_1" xmlns="http://www.w3.org/2000/svg" xmlns:xlink="http://www.w3.org/1999/xlink" x="0px" y="0px"
	 viewBox="0 0 1792 1792" style="enable-background:new 0 0 1792 1792;" xml:space="preserve">
<style type="text/css">
	.st0{fill:#1281C4;}
	.st1{fill:none;stroke:#1281C4;stroke-width:93.7722;stroke-miterlimit:10;}
</style>
<g>
	<g>
		<path class="st0" d="M840.6,1140.3c9,3.6,13.6,10.4,13.6,20.3v368.6c0,9.9-4.5,16.7-13.6,20.3c-3.6,0.9-6.3,1.4-8.1,1.4
			c-5.4,0-10.6-2-15.6-6.1l-112.5-113.1h-88.8c-6.3,0-11.5-2-15.6-6.1c-4.1-4.1-6.1-9.3-6.1-15.6v-130.1c0-6.3,2-11.5,6.1-15.6
			c4.1-4.1,9.3-6.1,15.6-6.1h88.8L816.9,1145C824.1,1138.2,832,1136.6,840.6,1140.3z M1123.1,1607.1c14,0,25.3-5.4,33.9-16.3
			c58.3-71.8,87.4-153.8,87.4-245.9c0-92.1-29.1-174.1-87.4-245.9c-7.2-9.5-16.9-14.9-29.1-16.3c-12.2-1.4-22.8,1.8-31.8,9.5
			c-9.5,7.7-14.8,17.5-15.9,29.5s2.1,22.7,9.8,32.2c45.2,55.6,67.8,119.2,67.8,191.1s-22.6,135.5-67.8,191.1
			c-7.7,9.5-11,20.2-9.8,32.2c1.1,12,6.4,21.6,15.9,28.8C1104.2,1603.7,1113.2,1607.1,1123.1,1607.1z M980.2,1506.8
			c12.2,0,22.8-4.5,31.8-13.6c39.3-42,58.9-91.5,58.9-148.4c0-56.9-19.6-106.4-58.9-148.4c-8.1-8.6-18.3-13.1-30.5-13.6
			s-22.6,3.4-31.2,11.5c-8.6,8.1-13.1,18.2-13.6,30.1s3.6,22.5,12.2,31.5c23.5,25.7,35.2,55.3,35.2,88.8s-11.7,63-35.2,88.8
			c-8.6,9-12.6,19.5-12.2,31.5c0.5,12,5,22,13.6,30.1C959.4,1502.9,969.3,1506.8,980.2,1506.8z"/>
	</g>
	<path class="st0" d="M469.9,1069.4v606.3c0,0-318.8-6.2-300.1-303.2S469.9,1069.4,469.9,1069.4z"/>
	<path class="st1" d="M190.9,1372.5h-21.1c0,0-93.3-1234.2,749.4-1234.2"/>
	<path class="st0" d="M422.6,1709L422.6,1709c-26,0-47.3-21.3-47.3-47.3v-592.3c0-26,21.3-47.3,47.3-47.3h0
		c26,0,47.3,21.3,47.3,47.3v592.3C469.9,1687.7,448.6,1709,422.6,1709z"/>
	<path class="st0" d="M1368.5,1069.4v606.3c0,0,318.8-6.2,300.1-303.2S1368.5,1069.4,1368.5,1069.4z"/>
	<path class="st1" d="M1647.5,1372.5h21.1c0,0,93.3-1234.2-749.4-1234.2"/>
	<path class="st0" d="M1415.8,1709L1415.8,1709c26,0,47.3-21.3,47.3-47.3v-592.3c0-26-21.3-47.3-47.3-47.3l0,0
		c-26,0-47.3,21.3-47.3,47.3v592.3C1368.5,1687.7,1389.8,1709,1415.8,1709z"/>
</g>
</svg>
